<svg xmlns="http://www.w3.org/2000/svg" xmlns:xlink="http://www.w3.org/1999/xlink" viewBox="0,0,256,256" width="24px" height="24px" fill-rule="nonzero"><g fill="#fcaf19" fill-rule="nonzero" stroke="none" stroke-width="1" stroke-linecap="butt" stroke-linejoin="miter" stroke-miterlimit="10" stroke-dasharray="" stroke-dashoffset="0" font-family="none" font-weight="none" font-size="none" text-anchor="none" style="mix-blend-mode: normal"><g transform="scale(10.66667,10.66667)"><path d="M18,3c-1.10457,0 -2,0.89543 -2,2c0,1.10457 0.89543,2 2,2c1.10457,0 2,-0.89543 2,-2c0,-1.10457 -0.89543,-2 -2,-2zM18,17c-1.10457,0 -2,0.89543 -2,2c0,1.10457 0.89543,2 2,2c1.10457,0 2,-0.89543 2,-2c0,-1.10457 -0.89543,-2 -2,-2zM6,10c-1.10457,0 -2,0.89543 -2,2c0,1.10457 0.89543,2 2,2c1.10457,0 2,-0.89543 2,-2c0,-1.10457 -0.89543,-2 -2,-2z" opacity="0.3"></path><path d="M18,8c-1.7,0 -3,-1.3 -3,-3c0,-1.7 1.3,-3 3,-3c1.7,0 3,1.3 3,3c0,1.7 -1.3,3 -3,3zM18,4c-0.6,0 -1,0.4 -1,1c0,0.6 0.4,1 1,1c0.6,0 1,-0.4 1,-1c0,-0.6 -0.4,-1 -1,-1zM18,22c-1.7,0 -3,-1.3 -3,-3c0,-1.7 1.3,-3 3,-3c1.7,0 3,1.3 3,3c0,1.7 -1.3,3 -3,3zM18,18c-0.6,0 -1,0.4 -1,1c0,0.6 0.4,1 1,1c0.6,0 1,-0.4 1,-1c0,-0.6 -0.4,-1 -1,-1zM6,15c-1.7,0 -3,-1.3 -3,-3c0,-1.7 1.3,-3 3,-3c1.7,0 3,1.3 3,3c0,1.7 -1.3,3 -3,3zM6,11c-0.6,0 -1,0.4 -1,1c0,0.6 0.4,1 1,1c0.6,0 1,-0.4 1,-1c0,-0.6 -0.4,-1 -1,-1z"></path><path transform="translate(-2.64886,7.19952) rotate(-30.243)" d="M7.1,7.5h9.9v2h-9.9z"></path><path transform="translate(-7.43534,18.04796) rotate(-59.748)" d="M11,10.6h2v9.9h-2z"></path></g></g></svg>